<svg xmlns="http://www.w3.org/2000/svg" viewBox="0 0 800 1100" fill="none" stroke="currentColor" stroke-width="0.5" opacity="1">
  <!-- Manhattan Island Outline -->
  <path d="M340 50 L355 45 L370 55 L380 80 L385 120 L390 180 L395 250 L398 320 L400 400 L402 480 L405 560 L408 640 L410 700 L412 760 L415 820 L420 870 L425 900 L430 920 L428 940 L420 955 L408 960 L395 958 L380 950 L365 935 L355 920 L348 900 L342 870 L338 820 L335 760 L332 700 L330 640 L328 560 L326 480 L324 400 L322 320 L320 250 L318 180 L320 120 L325 80 L332 60 Z" stroke-width="1"/>
  
  <!-- Manhattan Grid - Avenues (running roughly north-south, angled ~29°) -->
  <line x1="330" y1="100" x2="350" y2="920" stroke-width="0.3"/>
  <line x1="338" y1="95" x2="358" y2="915" stroke-width="0.3"/>
  <line x1="346" y1="90" x2="366" y2="910" stroke-width="0.3"/>
  <line x1="354" y1="85" x2="374" y2="905" stroke-width="0.3"/>
  <line x1="362" y1="80" x2="382" y2="900" stroke-width="0.3"/>
  <line x1="370" y1="78" x2="390" y2="895" stroke-width="0.3"/>
  <line x1="378" y1="82" x2="398" y2="900" stroke-width="0.3"/>
  <line x1="386" y1="90" x2="406" y2="910" stroke-width="0.3"/>
  <line x1="394" y1="100" x2="412" y2="920" stroke-width="0.3"/>
  
  <!-- Manhattan Grid - Streets (running east-west, perpendicular to avenues) -->
  <line x1="322" y1="150" x2="392" y2="140" stroke-width="0.2"/>
  <line x1="320" y1="200" x2="394" y2="188" stroke-width="0.2"/>
  <line x1="319" y1="250" x2="396" y2="236" stroke-width="0.2"/>
  <line x1="318" y1="300" x2="398" y2="284" stroke-width="0.2"/>
  <line x1="320" y1="350" x2="399" y2="332" stroke-width="0.2"/>
  <line x1="322" y1="400" x2="400" y2="380" stroke-width="0.2"/>
  <line x1="324" y1="450" x2="401" y2="428" stroke-width="0.2"/>
  <line x1="325" y1="500" x2="402" y2="476" stroke-width="0.2"/>
  <line x1="326" y1="550" x2="404" y2="524" stroke-width="0.2"/>
  <line x1="328" y1="600" x2="406" y2="572" stroke-width="0.2"/>
  <line x1="330" y1="650" x2="408" y2="620" stroke-width="0.2"/>
  <line x1="331" y1="700" x2="410" y2="668" stroke-width="0.2"/>
  <line x1="333" y1="750" x2="412" y2="716" stroke-width="0.2"/>
  <line x1="335" y1="800" x2="414" y2="764" stroke-width="0.2"/>
  <line x1="338" y1="850" x2="418" y2="812" stroke-width="0.2"/>
  
  <!-- Central Park -->
  <rect x="348" y="280" width="32" height="120" rx="2" stroke-width="0.8" stroke-dasharray="2 2"/>
  
  <!-- Broadway diagonal -->
  <line x1="370" y1="55" x2="415" y2="940" stroke-width="0.4" stroke-dasharray="4 3"/>

  <!-- East River -->
  <path d="M405 100 Q430 200 425 350 Q420 500 430 650 Q435 750 430 850 Q425 920 420 960" stroke-width="0.8" stroke-dasharray="3 2"/>
  
  <!-- Hudson River -->
  <path d="M315 80 Q300 200 305 350 Q310 500 305 650 Q302 750 308 850 Q315 920 325 950" stroke-width="0.8" stroke-dasharray="3 2"/>

  <!-- Brooklyn outline -->
  <path d="M430 850 L450 840 L480 830 L520 825 L560 830 L590 845 L610 865 L620 890 L625 920 L620 950 L610 975 L590 990 L560 1000 L520 1005 L480 1000 L450 988 L435 970 L425 950 L420 930 L425 900 L430 870 Z" stroke-width="0.6"/>
  
  <!-- Brooklyn grid hints -->
  <line x1="440" y1="860" x2="600" y2="860" stroke-width="0.15"/>
  <line x1="435" y1="890" x2="620" y2="890" stroke-width="0.15"/>
  <line x1="430" y1="920" x2="625" y2="920" stroke-width="0.15"/>
  <line x1="435" y1="950" x2="615" y2="950" stroke-width="0.15"/>
  <line x1="445" y1="980" x2="595" y2="980" stroke-width="0.15"/>
  <line x1="470" y1="835" x2="470" y2="1000" stroke-width="0.15"/>
  <line x1="500" y1="828" x2="500" y2="1005" stroke-width="0.15"/>
  <line x1="530" y1="828" x2="530" y2="1002" stroke-width="0.15"/>
  <line x1="560" y1="832" x2="560" y2="998" stroke-width="0.15"/>
  <line x1="590" y1="845" x2="590" y2="990" stroke-width="0.15"/>
  
  <!-- Queens hint (upper right) -->
  <path d="M430 650 L460 630 L500 620 L550 618 L600 625 L640 640 L660 660 L665 690 L660 720 L640 750 L615 780 L590 800 L560 815 L530 822 L500 825 L470 828 L450 835 L435 845 L430 855" stroke-width="0.5"/>
  
  <!-- Queens grid hints -->
  <line x1="460" y1="650" x2="650" y2="650" stroke-width="0.12"/>
  <line x1="450" y1="690" x2="665" y2="690" stroke-width="0.12"/>
  <line x1="445" y1="730" x2="655" y2="730" stroke-width="0.12"/>
  <line x1="445" y1="770" x2="630" y2="770" stroke-width="0.12"/>
  <line x1="450" y1="810" x2="580" y2="810" stroke-width="0.12"/>
  <line x1="490" y1="622" x2="490" y2="825" stroke-width="0.12"/>
  <line x1="530" y1="618" x2="530" y2="822" stroke-width="0.12"/>
  <line x1="570" y1="622" x2="570" y2="815" stroke-width="0.12"/>
  <line x1="610" y1="632" x2="610" y2="790" stroke-width="0.12"/>
  <line x1="645" y1="648" x2="645" y2="745" stroke-width="0.12"/>
  
  <!-- Bronx hint (top right) -->
  <path d="M380 50 L400 40 L430 35 L470 38 L510 50 L540 70 L555 95 L558 130 L550 170 L535 210 L515 245 L490 275 L465 300 L440 320 L425 340 L415 370 L410 400" stroke-width="0.5"/>
  
  <!-- Bronx grid hints -->
  <line x1="400" y1="60" x2="545" y2="60" stroke-width="0.12"/>
  <line x1="395" y1="100" x2="558" y2="100" stroke-width="0.12"/>
  <line x1="400" y1="140" x2="555" y2="140" stroke-width="0.12"/>
  <line x1="405" y1="180" x2="548" y2="180" stroke-width="0.12"/>
  <line x1="408" y1="220" x2="530" y2="220" stroke-width="0.12"/>
  <line x1="410" y1="260" x2="500" y2="260" stroke-width="0.12"/>
  <line x1="450" y1="38" x2="450" y2="310" stroke-width="0.12"/>
  <line x1="490" y1="42" x2="490" y2="280" stroke-width="0.12"/>
  <line x1="525" y1="58" x2="525" y2="230" stroke-width="0.12"/>

  <!-- Compass indicator (true north) -->
  <g transform="translate(680, 80)">
    <line x1="0" y1="20" x2="0" y2="-20" stroke-width="1"/>
    <polygon points="0,-22 -4,-14 4,-14" fill="currentColor" stroke="none"/>
    <text x="0" y="-28" text-anchor="middle" font-size="10" font-family="Inter, sans-serif" fill="currentColor" stroke="none" font-weight="500">N</text>
  </g>

  <!-- Scale bar -->
  <g transform="translate(640, 1050)">
    <line x1="0" y1="0" x2="60" y2="0" stroke-width="0.8"/>
    <line x1="0" y1="-3" x2="0" y2="3" stroke-width="0.8"/>
    <line x1="60" y1="-3" x2="60" y2="3" stroke-width="0.8"/>
    <text x="30" y="14" text-anchor="middle" font-size="8" font-family="Inter, sans-serif" fill="currentColor" stroke="none">1 mi</text>
  </g>
</svg>
